<svg xmlns="http://www.w3.org/2000/svg" version="1.1" xmlns:xlink="http://www.w3.org/1999/xlink" xmlns:svgjs="http://svgjs.dev/svgjs" width="128" height="128" viewBox="0 0 128 128"><g transform="matrix(0.8046875,0,0,0.8046875,12.221578124999994,17.09714749999999)"><svg viewBox="0 0 96 87" data-background-color="#ffffff" preserveAspectRatio="xMidYMid meet" height="116" width="128" xmlns="http://www.w3.org/2000/svg" xmlns:xlink="http://www.w3.org/1999/xlink"><g id="tight-bounds" transform="matrix(1,0,0,1,0.25950000000000273,0.21528000000000702)"><svg viewBox="0 0 95.481 86.56943999999999" height="86.56943999999999" width="95.481"><g><svg viewBox="0 0 95.481 86.56943999999999" height="86.56943999999999" width="95.481"><g><svg viewBox="0 0 95.481 86.56943999999999" height="86.56943999999999" width="95.481"><g id="textblocktransform"><svg viewBox="0 0 95.481 86.56943999999999" height="86.56943999999999" width="95.481" id="textblock"><g><svg viewBox="0 0 95.481 86.56943999999999" height="86.56943999999999" width="95.481"><g><svg viewBox="0 0 95.481 86.56943999999999" height="86.56943999999999" width="95.481"><g><svg xmlns="http://www.w3.org/2000/svg" xmlns:xlink="http://www.w3.org/1999/xlink" version="1.1" x="0" y="0" viewBox="5 9.2 90 81.6" enable-background="new 0 0 100 100" xml:space="preserve" height="86.56943999999999" width="95.481" class="icon-icon-0" data-fill-palette-color="accent" id="icon-0"><path d="M87.4 9.2H12.6C8.4 9.2 5 12.6 5 16.7V63.6C5 67.8 8.4 71.2 12.6 71.2H24V90.8L43.6 71.2H87.4C91.6 71.2 95 67.8 95 63.6V16.7C95 12.6 91.6 9.2 87.4 9.2M26.3 48.7C21.6 48.7 17.8 44.9 17.8 40.2S21.6 31.7 26.3 31.7 34.8 35.5 34.8 40.2 31 48.7 26.3 48.7M50 48.7C45.3 48.7 41.5 44.9 41.5 40.2S45.3 31.7 50 31.7 58.5 35.5 58.5 40.2 54.7 48.7 50 48.7M73.7 48.7C69 48.7 65.2 44.9 65.2 40.2S69 31.7 73.7 31.7 82.2 35.5 82.2 40.2 78.4 48.7 73.7 48.7" fill="#378a6f" data-fill-palette-color="accent"></path></svg></g></svg></g></svg></g></svg></g></svg></g></svg></g><defs></defs></svg><rect width="95.481" height="86.56943999999999" fill="none" stroke="none" visibility="hidden"></rect></g></svg></g></svg>