<svg xmlns="http://www.w3.org/2000/svg" version="1.1" xmlns:xlink="http://www.w3.org/1999/xlink" xmlns:svgjs="http://svgjs.dev/svgjs" width="2000" height="580" viewBox="0 0 2000 580"><g transform="matrix(1,0,0,1,-1.2121212121212466,-1.645663088579795)"><svg viewBox="0 0 396 115" data-background-color="#f9f6ed" preserveAspectRatio="xMidYMid meet" height="580" width="2000" xmlns="http://www.w3.org/2000/svg" xmlns:xlink="http://www.w3.org/1999/xlink"><g id="tight-bounds" transform="matrix(1,0,0,1,0.2400000000000091,0.3262952675632391)"><svg viewBox="0 0 395.52 114.3474094648735" height="114.3474094648735" width="395.52"><g><svg viewBox="0 0 630.5053061354417 182.28319278530736" height="114.3474094648735" width="395.52"><g transform="matrix(1,0,0,1,0,31.72803177638162)"><svg viewBox="0 0 395.52 118.82712923254412" height="118.82712923254412" width="395.52"><g id="textblocktransform"><svg viewBox="0 0 395.52 118.82712923254412" height="118.82712923254412" width="395.52" id="textblock"><g><svg viewBox="0 0 395.52 75.98259473220405" height="75.98259473220405" width="395.52"><g transform="matrix(1,0,0,1,0,0)"><svg width="395.52" viewBox="6.71 -34.94 249.31999999999996 47.9" height="75.98259473220405" data-palette-color="#0e3c6a"><path d="M24.07-34.94L24.07-34.94Q28.81-34.94 33.5-33.08L33.5-33.08 32.23-29.64Q27.49-31.27 23.95-31.27L23.95-31.27Q21.02-31.27 18.52-30.11 16.02-28.96 14.37-27.01 12.72-25.07 11.79-22.57 10.86-20.07 10.86-17.33L10.86-17.33Q10.86-14.5 11.85-11.95 12.84-9.4 14.62-7.48 16.41-5.57 19.06-4.44 21.7-3.32 24.85-3.32L24.85-3.32Q28.61-3.32 32.69-4.79L32.69-4.79 33.96-1.71Q28.86 0.49 23.8 0.49L23.8 0.49Q20.68 0.49 17.94-0.42 15.21-1.32 13.17-2.94 11.13-4.57 9.67-6.79 8.2-9.01 7.46-11.68 6.71-14.36 6.71-17.31L6.71-17.31Q6.71-22.31 8.8-26.29 10.89-30.27 14.87-32.6 18.85-34.94 24.07-34.94ZM50.34-24.58L50.34-24.58Q55.34-24.58 58.58-21.39 61.81-18.19 61.81-12.55L61.81-12.55Q61.81-6.57 58.51-3.04 55.2 0.49 49.95 0.49L49.95 0.49Q44.94 0.49 41.77-2.82 38.6-6.13 38.6-11.79L38.6-11.79Q38.6-17.63 41.83-21.11 45.07-24.58 50.34-24.58ZM50-21.17L50-21.17Q46.99-21.17 44.75-18.85 42.5-16.53 42.5-12.48L42.5-12.48Q42.5-8.45 44.7-5.69 46.9-2.93 50.39-2.93L50.39-2.93Q53.61-2.93 55.76-5.37 57.91-7.81 57.91-11.74L57.91-11.74Q57.91-13.99 57.21-15.82 56.52-17.65 55.38-18.8 54.25-19.95 52.85-20.56 51.46-21.17 50-21.17ZM69.38 0L69.38-24.12 72.19-24.12 73.07-22.07Q77.73-24.61 81.56-24.61L81.56-24.61Q83.54-24.61 85-23.99 86.47-23.36 87.28-22.42 88.08-21.48 88.56-20.06 89.03-18.63 89.17-17.33 89.3-16.04 89.3-14.38L89.3-14.38 89.3 0 85.3 0 85.3-14.65Q85.3-21 79.83-21L79.83-21Q77-21 73.38-19.12L73.38-19.12 73.38 0 69.38 0ZM98.09 0L98.09-24.12 100.9-24.12 101.77-22.07Q106.44-24.61 110.27-24.61L110.27-24.61Q112.25-24.61 113.71-23.99 115.18-23.36 115.98-22.42 116.79-21.48 117.27-20.06 117.74-18.63 117.88-17.33 118.01-16.04 118.01-14.38L118.01-14.38 118.01 0 114.01 0 114.01-14.65Q114.01-21 108.54-21L108.54-21Q105.71-21 102.09-19.12L102.09-19.12 102.09 0 98.09 0ZM137.17-24.58L137.17-24.58Q138.93-24.58 140.33-24.16 141.74-23.73 142.67-23.07 143.59-22.41 144.26-21.35 144.94-20.29 145.29-19.3 145.64-18.31 145.84-16.92 146.03-15.53 146.08-14.5 146.13-13.48 146.13-12.08L146.13-12.08 146.13-10.18 129.56-10.18Q129.56-8.86 130.15-7.56 130.75-6.25 131.84-5.16 132.92-4.08 134.69-3.39 136.46-2.71 138.61-2.71L138.61-2.71Q141.15-2.71 144.11-3.59L144.11-3.59 144.81-0.85Q140.88 0.49 137.1 0.49L137.1 0.49Q134.44 0.49 132.38-0.22 130.31-0.93 129.05-2.06 127.8-3.2 126.99-4.79 126.19-6.37 125.88-7.95 125.58-9.52 125.58-11.28L125.58-11.28Q125.58-13.99 126.24-16.24 126.89-18.48 128.02-20.01 129.14-21.53 130.64-22.58 132.14-23.63 133.79-24.11 135.44-24.58 137.17-24.58ZM136.32-21.12L136.32-21.12Q134.17-21.12 132.62-19.93 131.07-18.75 130.36-16.99 129.65-15.23 129.65-13.21L129.65-13.21 142.25-13.21Q142.25-21.12 136.32-21.12ZM152.48-11.5L152.48-11.5Q152.48-14.36 153.16-16.64 153.84-18.92 154.98-20.37 156.12-21.83 157.65-22.79 159.19-23.75 160.8-24.16 162.41-24.56 164.17-24.56L164.17-24.56Q167.64-24.56 170.93-23.12L170.93-23.12 169.96-20.19Q167.25-21.12 164.66-21.12L164.66-21.12Q163.39-21.12 162.27-20.89 161.14-20.65 160.03-20.04 158.92-19.43 158.13-18.47 157.34-17.5 156.85-15.94 156.36-14.38 156.36-12.35L156.36-12.35Q156.36-10.13 156.87-8.44 157.38-6.74 158.22-5.69 159.05-4.64 160.2-3.98 161.36-3.32 162.55-3.06 163.73-2.81 165.1-2.81L165.1-2.81Q167.39-2.81 169.69-3.61L169.69-3.61 170.67-0.85Q167.2 0.49 163.71 0.49L163.71 0.49Q162.1 0.49 160.62 0.17 159.14-0.15 157.62-0.99 156.09-1.83 154.98-3.13 153.87-4.42 153.17-6.58 152.48-8.74 152.48-11.5ZM190.39-3.15L190.95-0.42Q187.41 0.49 185.43 0.49 183.46 0.49 182.09-0.15 180.72-0.78 180.01-1.95 179.31-3.13 179-4.48 178.7-5.83 178.7-7.59L178.7-7.59 178.7-20.97 175.45-20.97 175.45-24.12 178.7-24.12 178.7-31.03 182.7-31.03 182.7-24.12 190.05-24.12 190.05-20.97 182.7-20.97 182.7-7.64Q182.7-2.64 186.65-2.64L186.65-2.64Q187.36-2.64 190.39-3.15L190.39-3.15ZM203.96 1.2L193.88-24.12 198.27-24.12 205.99-3.66 213.17-24.12 217.32-24.12 203.4 12.96 199.13 12.96 203.96 1.2ZM233.48-24.58L233.48-24.58Q234.97-24.58 236.38-24.23 237.8-23.88 239.23-22.99 240.65-22.09 241.72-20.74 242.78-19.38 243.45-17.21 244.12-15.04 244.12-12.33L244.12-12.33Q244.12-6.4 240.96-2.95 237.8 0.49 232.77 0.49L232.77 0.49Q229.89 0.49 226.93-0.81L226.93-0.81 226.93 12.96 222.93 12.96 222.93-24.12 225.71-24.12 226.37-22.58Q229.79-24.58 233.48-24.58ZM232.11-21.26L232.11-21.26Q229.45-21.26 226.93-19.92L226.93-19.92 226.93-3.83Q229.55-2.66 232.18-2.66L232.18-2.66Q233.31-2.66 234.36-2.91 235.4-3.15 236.49-3.8 237.58-4.44 238.38-5.42 239.19-6.4 239.7-8.01 240.21-9.62 240.21-11.65L240.21-11.65Q240.21-13.94 239.68-15.7 239.14-17.46 238.31-18.48 237.48-19.51 236.36-20.17 235.23-20.83 234.21-21.04 233.18-21.26 232.11-21.26ZM251.3-30.08L251.3-34.69 256.03-34.69 256.03-30.08 251.3-30.08ZM251.66 0L251.66-24.12 255.67-24.12 255.67 0 251.66 0Z" opacity="1" transform="matrix(1,0,0,1,0,0)" fill="#0e3c6a" class="wordmark-text-0" data-fill-palette-color="primary" id="text-0"></path></svg></g></svg></g><g transform="matrix(1,0,0,1,75.54432,93.92026176620385)"><svg viewBox="0 0 244.43135999999998 24.90686746634027" height="24.90686746634027" width="244.43135999999998"><g transform="matrix(1,0,0,1,0,0)"><svg width="244.43135999999998" viewBox="2.1 -38.5 490.15 49.95" height="24.90686746634027" data-palette-color="#0d3a0b"><path d="M10.25-4.7L10.25-4.7Q11.65-4.7 12.25-5.25 12.85-5.8 12.85-6.8L12.85-6.8Q12.85-7.45 12.63-7.9 12.4-8.35 11.93-8.7 11.45-9.05 10.7-9.38 9.95-9.7 8.9-10.1L8.9-10.1Q7.7-10.55 6.48-11.1 5.25-11.65 4.28-12.5 3.3-13.35 2.7-14.7 2.1-16.05 2.1-18.1L2.1-18.1Q2.1-20.5 3.03-21.98 3.95-23.45 5.3-24.25 6.65-25.05 8.2-25.33 9.75-25.6 11.05-25.6L11.05-25.6Q12.5-25.6 14.2-25.35 15.9-25.1 17.05-24.65L17.05-24.65 17.05-19.35Q16.2-19.65 15.25-19.88 14.3-20.1 13.4-20.25 12.5-20.4 11.7-20.48 10.9-20.55 10.4-20.55L10.4-20.55Q7.2-20.55 7.2-18.35L7.2-18.35Q7.2-16.8 8.6-16.03 10-15.25 12.05-14.5L12.05-14.5Q13.3-14.05 14.4-13.48 15.5-12.9 16.32-12.03 17.15-11.15 17.63-9.85 18.1-8.55 18.1-6.7L18.1-6.7Q18.1-2.9 16-1.15 13.9 0.6 10.55 0.6L10.55 0.6Q8.75 0.6 6.6 0.1 4.45-0.4 2.35-1.45L2.35-1.45 2.15-7.1Q2.8-6.65 3.8-6.23 4.8-5.8 5.95-5.48 7.1-5.15 8.22-4.93 9.35-4.7 10.25-4.7ZM20.9-21.45L20.55-24.6Q22.2-24.7 23.25-25.18 24.3-25.65 24.97-26.58 25.65-27.5 26.1-29 26.55-30.5 27-32.6L27-32.6 31.65-33.95Q31.2-31.2 30.95-29.1 30.7-27 30.5-25L30.5-25 35.9-25 35.45-20.75 30.25-21.1Q30.05-18.1 29.97-15.58 29.9-13.05 29.9-11.25L29.9-11.25Q29.9-9.2 30.02-7.98 30.15-6.75 30.42-6.08 30.7-5.4 31.17-5.18 31.65-4.95 32.4-4.95L32.4-4.95Q33.4-4.95 34.35-5.23 35.3-5.5 35.95-5.9L35.95-5.9 35.2-0.7Q34-0.05 32.95 0.28 31.9 0.6 30.45 0.6L30.45 0.6Q28.8 0.6 27.55 0.1 26.3-0.4 25.47-1.58 24.65-2.75 24.25-4.63 23.85-6.5 23.85-9.2L23.85-9.2Q23.85-11.45 24.07-14.7 24.3-17.95 24.55-21.45L24.55-21.45 20.9-21.45ZM45.3 0.6L45.3 0.6Q42.15 0.6 40.22-1.55 38.3-3.7 38.3-7.15L38.3-7.15Q38.3-10.75 40.4-12.9 42.5-15.05 46-15.05L46-15.05Q47.45-15.05 48.9-14.65 50.34-14.25 51.5-13.5L51.5-13.5 51.5-16.3Q51.5-18.65 50.59-19.6 49.7-20.55 47.5-20.55L47.5-20.55Q46-20.55 44.32-20.18 42.65-19.8 41.65-19.25L41.65-19.25 40.09-24.05Q40.84-24.35 41.9-24.65 42.95-24.95 44.15-25.15 45.34-25.35 46.59-25.48 47.84-25.6 48.9-25.6L48.9-25.6Q57.7-25.6 57.7-17L57.7-17Q57.7-16.25 57.62-14.8 57.55-13.35 57.47-11.78 57.4-10.2 57.32-8.85 57.25-7.5 57.25-6.95L57.25-6.95Q57.25-5.8 57.59-5.3 57.95-4.8 58.9-4.8L58.9-4.8Q59.55-4.8 60.4-5L60.4-5 59.59-0.2Q58.8 0.05 58.12 0.2 57.45 0.35 56.75 0.35L56.75 0.35Q54.9 0.35 53.65-0.68 52.4-1.7 52.15-3.6L52.15-3.6Q51.15-1.65 49.34-0.53 47.55 0.6 45.3 0.6ZM47.7-4L47.7-4Q49.3-4 50.42-5.15 51.55-6.3 51.55-8.05L51.55-8.05Q51.55-9.55 50.65-10.45 49.75-11.35 48.15-11.35L48.15-11.35Q46.5-11.35 45.55-10.35 44.59-9.35 44.59-7.6L44.59-7.6Q44.59-5.95 45.42-4.98 46.25-4 47.7-4ZM78.24-25L84.69-25.6Q83.24-20.4 81.67-15.68 80.09-10.95 78.37-6.5 76.64-2.05 74.77 2.25 72.89 6.55 70.84 10.85L70.84 10.85 63.94 11.45Q65.89 8.4 67.49 5.45 69.09 2.5 70.44-0.4L70.44-0.4Q67.44-6.05 65.22-12.05 62.99-18.05 61.24-25L61.24-25 67.69-25.6Q68.24-23 68.84-20.28 69.44-17.55 70.12-15.05 70.79-12.55 71.57-10.38 72.34-8.2 73.24-6.65L73.24-6.65Q74.99-11.65 76.07-16.13 77.14-20.6 78.24-25L78.24-25ZM96.69-10.85L96.69-10.85Q96.69-14.6 97.51-17.38 98.34-20.15 99.84-21.98 101.34-23.8 103.36-24.7 105.39-25.6 107.79-25.6L107.79-25.6Q109.34-25.6 110.36-25.33 111.39-25.05 112.64-25.05L112.64-25.05Q113.19-25.05 113.69-25.15 114.19-25.25 115.19-25.55L115.19-25.55 115.74-15.85 110.84-15.2Q110.89-15.7 110.91-16.13 110.94-16.55 110.94-17.05L110.94-17.05Q110.94-19.8 109.96-20.98 108.99-22.15 107.89-22.15L107.89-22.15Q105.49-22.15 104.34-19.65 103.19-17.15 103.19-12.3L103.19-12.3Q103.19-8.2 104.51-6.4 105.84-4.6 108.39-4.6L108.39-4.6Q110.14-4.6 111.86-5.23 113.59-5.85 114.89-6.4L114.89-6.4 114.89-2Q113.29-0.55 111.06 0.03 108.84 0.6 106.54 0.6L106.54 0.6Q104.69 0.6 102.91 0.15 101.14-0.3 99.76-1.53 98.39-2.75 97.54-5 96.69-7.25 96.69-10.85ZM130.49-21.5L130.49-21.5Q128.13-21.5 126.89-19.03 125.64-16.55 125.64-12.25L125.64-12.25Q125.64-8.05 126.66-5.73 127.69-3.4 130.24-3.4L130.24-3.4Q132.59-3.4 133.88-5.98 135.19-8.55 135.19-12.85L135.19-12.85Q135.19-14.85 134.99-16.45 134.78-18.05 134.26-19.18 133.74-20.3 132.81-20.9 131.88-21.5 130.49-21.5ZM119.09-12.1L119.09-12.1Q119.09-15.2 119.94-17.7 120.78-20.2 122.31-21.95 123.84-23.7 126.03-24.65 128.24-25.6 130.94-25.6L130.94-25.6Q136.03-25.6 138.86-22.35 141.69-19.1 141.69-13.25L141.69-13.25Q141.69-10.1 140.84-7.55 139.99-5 138.44-3.18 136.88-1.35 134.71-0.38 132.53 0.6 129.88 0.6L129.88 0.6Q127.39 0.6 125.39-0.3 123.39-1.2 121.98-2.85 120.59-4.5 119.84-6.85 119.09-9.2 119.09-12.1ZM144.43-21.55L150.28-25.6Q151.28-24.15 151.88-23.05 152.48-21.95 152.78-20.8L152.78-20.8Q153.53-21.6 154.48-22.48 155.43-23.35 156.51-24.03 157.58-24.7 158.83-25.15 160.08-25.6 161.43-25.6L161.43-25.6Q162.68-25.6 163.86-25.15 165.03-24.7 165.93-23.65 166.83-22.6 167.38-20.8 167.93-19 167.93-16.3L167.93-16.3Q167.93-15.6 167.91-14.25 167.88-12.9 167.83-11.38 167.78-9.85 167.76-8.45 167.73-7.05 167.73-6.3L167.73-6.3Q167.73-4.65 167.96-3.13 168.18-1.6 168.73-0.6L168.73-0.6 161.78 0.6Q161.43-0.55 161.36-1.9 161.28-3.25 161.28-4.25L161.28-4.25Q161.28-5.65 161.36-7.13 161.43-8.6 161.51-9.98 161.58-11.35 161.66-12.58 161.73-13.8 161.73-14.7L161.73-14.7Q161.73-17.65 160.73-18.75 159.73-19.85 157.98-19.85L157.98-19.85Q156.53-19.85 155.31-19.4 154.08-18.95 153.13-18.3L153.13-18.3Q153.23-17.35 153.23-16.2 153.23-15.05 153.23-13.55L153.23-13.55Q153.23-11.25 153.23-9.4 153.23-7.55 153.26-5.95 153.28-4.35 153.31-2.93 153.33-1.5 153.38 0L153.38 0 146.63 0Q146.68-1.2 146.73-2.7 146.78-4.2 146.86-5.88 146.93-7.55 146.98-9.33 147.03-11.1 147.03-12.75L147.03-12.75Q147.03-14.7 146.93-15.93 146.83-17.15 146.53-18.07 146.23-19 145.73-19.78 145.23-20.55 144.43-21.55L144.43-21.55ZM171.78-21.55L177.63-25.6Q178.63-24.15 179.23-23.05 179.83-21.95 180.13-20.8L180.13-20.8Q180.88-21.6 181.83-22.48 182.78-23.35 183.85-24.03 184.93-24.7 186.18-25.15 187.43-25.6 188.78-25.6L188.78-25.6Q190.03-25.6 191.2-25.15 192.38-24.7 193.28-23.65 194.18-22.6 194.73-20.8 195.28-19 195.28-16.3L195.28-16.3Q195.28-15.6 195.25-14.25 195.23-12.9 195.18-11.38 195.13-9.85 195.1-8.45 195.08-7.05 195.08-6.3L195.08-6.3Q195.08-4.65 195.31-3.13 195.53-1.6 196.08-0.6L196.08-0.6 189.13 0.6Q188.78-0.55 188.7-1.9 188.63-3.25 188.63-4.25L188.63-4.25Q188.63-5.65 188.7-7.13 188.78-8.6 188.85-9.98 188.93-11.35 189-12.58 189.08-13.8 189.08-14.7L189.08-14.7Q189.08-17.65 188.08-18.75 187.08-19.85 185.33-19.85L185.33-19.85Q183.88-19.85 182.66-19.4 181.43-18.95 180.48-18.3L180.48-18.3Q180.58-17.35 180.58-16.2 180.58-15.05 180.58-13.55L180.58-13.55Q180.58-11.25 180.58-9.4 180.58-7.55 180.6-5.95 180.63-4.35 180.66-2.93 180.68-1.5 180.73 0L180.73 0 173.98 0Q174.03-1.2 174.08-2.7 174.13-4.2 174.2-5.88 174.28-7.55 174.33-9.33 174.38-11.1 174.38-12.75L174.38-12.75Q174.38-14.7 174.28-15.93 174.18-17.15 173.88-18.07 173.58-19 173.08-19.78 172.58-20.55 171.78-21.55L171.78-21.55ZM219.03-11.3L206.33-11.3Q206.58-7.5 207.88-5.98 209.18-4.45 211.83-4.45L211.83-4.45Q213.83-4.45 215.6-5.05 217.38-5.65 218.53-6.15L218.53-6.15 218.53-2Q216.93-0.55 214.53 0.03 212.13 0.6 209.88 0.6L209.88 0.6Q208.03 0.6 206.23 0.15 204.43-0.3 203-1.58 201.58-2.85 200.7-5.13 199.83-7.4 199.83-11.1L199.83-11.1Q199.83-14.75 200.73-17.48 201.63-20.2 203.2-22 204.78-23.8 206.9-24.7 209.03-25.6 211.53-25.6L211.53-25.6Q214.08-25.6 215.7-24.73 217.33-23.85 218.25-22.5 219.18-21.15 219.5-19.5 219.83-17.85 219.83-16.3L219.83-16.3Q219.83-14.7 219.6-13.4 219.38-12.1 219.03-11.3L219.03-11.3ZM210.63-21.95L210.63-21.95Q208.68-21.95 207.6-20.28 206.53-18.6 206.33-15L206.33-15 214.58-15Q214.58-15.2 214.6-15.5 214.63-15.8 214.63-16.05L214.63-16.05Q214.63-16.85 214.48-17.88 214.33-18.9 213.88-19.8 213.43-20.7 212.65-21.33 211.88-21.95 210.63-21.95ZM223.13-10.85L223.13-10.85Q223.13-14.6 223.95-17.38 224.78-20.15 226.28-21.98 227.78-23.8 229.8-24.7 231.82-25.6 234.22-25.6L234.22-25.6Q235.78-25.6 236.8-25.33 237.82-25.05 239.07-25.05L239.07-25.05Q239.63-25.05 240.13-25.15 240.63-25.25 241.63-25.55L241.63-25.55 242.18-15.85 237.28-15.2Q237.32-15.7 237.35-16.13 237.38-16.55 237.38-17.05L237.38-17.05Q237.38-19.8 236.4-20.98 235.43-22.15 234.32-22.15L234.32-22.15Q231.93-22.15 230.78-19.65 229.63-17.15 229.63-12.3L229.63-12.3Q229.63-8.2 230.95-6.4 232.28-4.6 234.82-4.6L234.82-4.6Q236.57-4.6 238.3-5.23 240.03-5.85 241.32-6.4L241.32-6.4 241.32-2Q239.72-0.55 237.5 0.03 235.28 0.6 232.97 0.6L232.97 0.6Q231.13 0.6 229.35 0.15 227.57-0.3 226.2-1.53 224.82-2.75 223.97-5 223.13-7.25 223.13-10.85ZM244.97-21.45L244.62-24.6Q246.27-24.7 247.32-25.18 248.37-25.65 249.05-26.58 249.72-27.5 250.17-29 250.62-30.5 251.07-32.6L251.07-32.6 255.72-33.95Q255.27-31.2 255.02-29.1 254.77-27 254.57-25L254.57-25 259.97-25 259.52-20.75 254.32-21.1Q254.12-18.1 254.05-15.58 253.97-13.05 253.97-11.25L253.97-11.25Q253.97-9.2 254.1-7.98 254.22-6.75 254.5-6.08 254.77-5.4 255.25-5.18 255.72-4.95 256.47-4.95L256.47-4.95Q257.47-4.95 258.42-5.23 259.37-5.5 260.02-5.9L260.02-5.9 259.27-0.7Q258.07-0.05 257.02 0.28 255.97 0.6 254.52 0.6L254.52 0.6Q252.87 0.6 251.62 0.1 250.37-0.4 249.55-1.58 248.72-2.75 248.32-4.63 247.92-6.5 247.92-9.2L247.92-9.2Q247.92-11.45 248.15-14.7 248.37-17.95 248.62-21.45L248.62-21.45 244.97-21.45ZM282.07-11.3L269.37-11.3Q269.62-7.5 270.92-5.98 272.22-4.45 274.87-4.45L274.87-4.45Q276.87-4.45 278.64-5.05 280.42-5.65 281.57-6.15L281.57-6.15 281.57-2Q279.97-0.55 277.57 0.03 275.17 0.6 272.92 0.6L272.92 0.6Q271.07 0.6 269.27 0.15 267.47-0.3 266.05-1.58 264.62-2.85 263.75-5.13 262.87-7.4 262.87-11.1L262.87-11.1Q262.87-14.75 263.77-17.48 264.67-20.2 266.25-22 267.82-23.8 269.94-24.7 272.07-25.6 274.57-25.6L274.57-25.6Q277.12-25.6 278.75-24.73 280.37-23.85 281.3-22.5 282.22-21.15 282.55-19.5 282.87-17.85 282.87-16.3L282.87-16.3Q282.87-14.7 282.64-13.4 282.42-12.1 282.07-11.3L282.07-11.3ZM273.67-21.95L273.67-21.95Q271.72-21.95 270.64-20.28 269.57-18.6 269.37-15L269.37-15 277.62-15Q277.62-15.2 277.64-15.5 277.67-15.8 277.67-16.05L277.67-16.05Q277.67-16.85 277.52-17.88 277.37-18.9 276.92-19.8 276.47-20.7 275.69-21.33 274.92-21.95 273.67-21.95ZM309.17-3.45L304.82 0.6Q303.42-0.7 302.57-1.68 301.72-2.65 301.27-3.65L301.27-3.65Q300.52-2.9 299.67-2.15 298.82-1.4 297.82-0.78 296.82-0.15 295.72 0.23 294.62 0.6 293.37 0.6L293.37 0.6Q292.02 0.6 290.72 0.15 289.42-0.3 288.42-1.5 287.42-2.7 286.79-4.75 286.17-6.8 286.17-10L286.17-10Q286.17-13.9 286.99-16.82 287.82-19.75 289.32-21.7 290.82-23.65 292.89-24.63 294.97-25.6 297.47-25.6L297.47-25.6Q299.02-25.6 300.37-24.85L300.37-24.85Q300.32-28.9 300.29-32 300.27-35.1 300.17-37.95L300.17-37.95 306.97-38.5Q306.67-32.4 306.62-25.68 306.57-18.95 306.57-12.25L306.57-12.25Q306.57-10.3 306.67-9.08 306.77-7.85 307.07-6.93 307.37-6 307.87-5.23 308.37-4.45 309.17-3.45L309.17-3.45ZM296.87-5.15L296.87-5.15Q297.97-5.15 298.87-5.53 299.77-5.9 300.52-6.5L300.52-6.5Q300.42-7.45 300.39-8.65 300.37-9.85 300.37-11.45L300.37-11.45 300.37-20.65Q299.22-22.1 297.27-22.1L297.27-22.1Q295.07-22.1 293.89-19.45 292.72-16.8 292.72-11.6L292.72-11.6Q292.72-9.55 293.02-8.3 293.32-7.05 293.87-6.35 294.42-5.65 295.17-5.4 295.92-5.15 296.87-5.15ZM322.81-2.5L322.81-2.5Q323.16-4.1 324.24-5.18 325.31-6.25 326.81-6.5L326.81-6.5Q330.71-5.45 330.71-2.2L330.71-2.2Q330.71 2 325.26 8.15L325.26 8.15 322.96 6.35Q324.26 4.25 324.79 3.05 325.31 1.85 325.31 0.7L325.31 0.7Q325.31-1.8 322.81-2.5ZM349.81 0L342.96 0.6Q344.31-4.45 345.68-9.08 347.06-13.7 348.56-18.05 350.06-22.4 351.78-26.6 353.51-30.8 355.51-35L355.51-35 361.76-35.6Q363.76-31.45 365.46-27.3 367.16-23.15 368.68-18.78 370.21-14.4 371.58-9.75 372.96-5.1 374.31 0L374.31 0 367.51 0.6Q366.81-2.05 366.11-4.73 365.41-7.4 364.71-10.1L364.71-10.1 352.36-10.1Q351.66-7.65 351.01-5.15 350.36-2.65 349.81 0L349.81 0ZM358.66-29.35L358.66-29.35Q355.76-22.25 353.61-14.7L353.61-14.7 363.46-14.7Q362.36-18.45 361.18-22.15 360.01-25.85 358.66-29.35ZM377.96-38L384.81-38.5Q384.66-36.75 384.58-34.9 384.51-33.05 384.48-30.83 384.46-28.6 384.43-25.85 384.41-23.1 384.41-19.55L384.41-19.55Q384.41-16.25 384.41-13.58 384.41-10.9 384.43-8.6 384.46-6.3 384.48-4.23 384.51-2.15 384.56 0L384.56 0 377.81 0Q377.86-2.6 377.93-4.6 378.01-6.6 378.06-8.78 378.11-10.95 378.16-13.73 378.21-16.5 378.21-20.7L378.21-20.7Q378.21-24.95 378.16-29.23 378.11-33.5 377.96-38L377.96-38ZM419.2-25L425.65-25.6Q424.2-18.5 422.4-12.33 420.6-6.15 418.3 0L418.3 0 412.25 0.6Q411.5-1.4 410.78-3.6 410.05-5.8 409.35-8.08 408.65-10.35 408.03-12.65 407.4-14.95 406.95-17.15L406.95-17.15Q406.05-12.9 404.65-8.4 403.25-3.9 401.8 0L401.8 0 395.75 0.6Q393.45-5.55 391.63-11.73 389.8-17.9 388.4-25L388.4-25 394.85-25.6Q395.6-20.55 396.58-15.63 397.55-10.7 398.75-5.95L398.75-5.95Q400.25-10.65 401.53-15.3 402.8-19.95 403.8-25L403.8-25 410.25-25.6Q411.25-20.55 412.5-15.63 413.75-10.7 415.25-5.95L415.25-5.95Q416.45-10.65 417.45-15.3 418.45-19.95 419.2-25L419.2-25ZM434.45 0.6L434.45 0.6Q431.3 0.6 429.38-1.55 427.45-3.7 427.45-7.15L427.45-7.15Q427.45-10.75 429.55-12.9 431.65-15.05 435.15-15.05L435.15-15.05Q436.6-15.05 438.05-14.65 439.5-14.25 440.65-13.5L440.65-13.5 440.65-16.3Q440.65-18.65 439.75-19.6 438.85-20.55 436.65-20.55L436.65-20.55Q435.15-20.55 433.48-20.18 431.8-19.8 430.8-19.25L430.8-19.25 429.25-24.05Q430-24.35 431.05-24.65 432.1-24.95 433.3-25.15 434.5-25.35 435.75-25.48 437-25.6 438.05-25.6L438.05-25.6Q446.85-25.6 446.85-17L446.85-17Q446.85-16.25 446.78-14.8 446.7-13.35 446.63-11.78 446.55-10.2 446.48-8.85 446.4-7.5 446.4-6.95L446.4-6.95Q446.4-5.8 446.75-5.3 447.1-4.8 448.05-4.8L448.05-4.8Q448.7-4.8 449.55-5L449.55-5 448.75-0.2Q447.95 0.05 447.28 0.2 446.6 0.35 445.9 0.35L445.9 0.35Q444.05 0.35 442.8-0.68 441.55-1.7 441.3-3.6L441.3-3.6Q440.3-1.65 438.5-0.53 436.7 0.6 434.45 0.6ZM436.85-4L436.85-4Q438.45-4 439.58-5.15 440.7-6.3 440.7-8.05L440.7-8.05Q440.7-9.55 439.8-10.45 438.9-11.35 437.3-11.35L437.3-11.35Q435.65-11.35 434.7-10.35 433.75-9.35 433.75-7.6L433.75-7.6Q433.75-5.95 434.58-4.98 435.4-4 436.85-4ZM467.4-25L473.85-25.6Q472.4-20.4 470.82-15.68 469.25-10.95 467.52-6.5 465.8-2.05 463.92 2.25 462.05 6.55 460 10.85L460 10.85 453.1 11.45Q455.05 8.4 456.65 5.45 458.25 2.5 459.6-0.4L459.6-0.4Q456.6-6.05 454.37-12.05 452.15-18.05 450.4-25L450.4-25 456.85-25.6Q457.4-23 458-20.28 458.6-17.55 459.27-15.05 459.95-12.55 460.72-10.38 461.5-8.2 462.4-6.65L462.4-6.65Q464.15-11.65 465.22-16.13 466.3-20.6 467.4-25L467.4-25ZM484.4-4.7L484.4-4.7Q485.8-4.7 486.4-5.25 487-5.8 487-6.8L487-6.8Q487-7.45 486.77-7.9 486.55-8.35 486.07-8.7 485.6-9.05 484.85-9.38 484.1-9.7 483.05-10.1L483.05-10.1Q481.85-10.55 480.62-11.1 479.4-11.65 478.42-12.5 477.45-13.35 476.85-14.7 476.25-16.05 476.25-18.1L476.25-18.1Q476.25-20.5 477.17-21.98 478.1-23.45 479.45-24.25 480.8-25.05 482.35-25.33 483.9-25.6 485.2-25.6L485.2-25.6Q486.65-25.6 488.35-25.35 490.05-25.1 491.2-24.65L491.2-24.65 491.2-19.35Q490.35-19.65 489.4-19.88 488.45-20.1 487.55-20.25 486.65-20.4 485.85-20.48 485.05-20.55 484.55-20.55L484.55-20.55Q481.35-20.55 481.35-18.35L481.35-18.35Q481.35-16.8 482.75-16.03 484.15-15.25 486.2-14.5L486.2-14.5Q487.45-14.05 488.55-13.48 489.65-12.9 490.47-12.03 491.3-11.15 491.77-9.85 492.25-8.55 492.25-6.7L492.25-6.7Q492.25-2.9 490.15-1.15 488.05 0.6 484.7 0.6L484.7 0.6Q482.9 0.6 480.75 0.1 478.6-0.4 476.5-1.45L476.5-1.45 476.3-7.1Q476.95-6.65 477.95-6.23 478.95-5.8 480.1-5.48 481.25-5.15 482.37-4.93 483.5-4.7 484.4-4.7Z" opacity="1" transform="matrix(1,0,0,1,0,0)" fill="#0d3a0b" class="slogan-text-1" data-fill-palette-color="secondary" id="text-1"></path></svg></g></svg></g></svg></g></svg></g><g transform="matrix(1,0,0,1,413.45766703399977,0)"><svg viewBox="0 0 217.04763910144197 182.28319278530736" height="182.28319278530736" width="217.04763910144197"><g><svg xmlns="http://www.w3.org/2000/svg" xmlns:xlink="http://www.w3.org/1999/xlink" version="1.1" x="8" y="0" viewBox="5 9.2 90 81.6" enable-background="new 0 0 100 100" xml:space="preserve" height="182.28319278530736" width="201.04763910144197" class="icon-icon-0" data-fill-palette-color="accent" id="icon-0"><path d="M87.4 9.2H12.6C8.4 9.2 5 12.6 5 16.7V63.6C5 67.8 8.4 71.2 12.6 71.2H24V90.8L43.6 71.2H87.4C91.6 71.2 95 67.8 95 63.6V16.7C95 12.6 91.6 9.2 87.4 9.2M26.3 48.7C21.6 48.7 17.8 44.9 17.8 40.2S21.6 31.7 26.3 31.7 34.8 35.5 34.8 40.2 31 48.7 26.3 48.7M50 48.7C45.3 48.7 41.5 44.9 41.5 40.2S45.3 31.7 50 31.7 58.5 35.5 58.5 40.2 54.7 48.7 50 48.7M73.7 48.7C69 48.7 65.2 44.9 65.2 40.2S69 31.7 73.7 31.7 82.2 35.5 82.2 40.2 78.4 48.7 73.7 48.7" fill="#378a6f" data-fill-palette-color="accent"></path></svg></g></svg></g></svg></g><defs></defs></svg><rect width="395.52" height="114.3474094648735" fill="none" stroke="none" visibility="hidden"></rect></g></svg></g></svg>